# xmcd
#
# Track frame offsets:
#	150
#	30272
#	56777
#	100823
#	114823
#	153456
#	190158
#	211413
#
# Disc length: 2999 seconds
#
# Revision: 0
# Processed by: cddbd v1.5.1PL0 Copyright (c) Steve Scherf et al.
# Submitted via: audiograbber 1.83.01
#
DISCID=5f0bb508
DTITLE=FRENCH DISC 2 - FRENCH
DYEAR=2005
DGENRE=KJFD
TTITLE0=ONE - ONE
TTITLE1=TWO - TWO
TTITLE2=THREE - THREE
TTITLE3=FOUR - FOUR
TTITLE4=FIVE - FIVE
TTITLE5=SIX - SIX
TTITLE6=SEVEN - SEVEN
TTITLE7=EIGHT - EIGHT
EXTD=
EXTT0=
EXTT1=
EXTT2=
EXTT3=
EXTT4=
EXTT5=
EXTT6=
EXTT7=
PLAYORDER=
